<svg width="510" height="510" viewBox="0 0 510 510" fill="none" xmlns="http://www.w3.org/2000/svg">
    <g id="Desktop - 1">
        <g id="screen">
            <rect id="large-rectangle" x="59" y="9" width="393" height="271" rx="30" stroke="white" stroke-width="10"/>
        </g>
        <g id="slash">
            <rect id="forward-slash" x="222.407" y="215.965" width="156.005" height="5.69363" rx="2.84681" transform="rotate(-68.2554 222.407 215.965)" fill="white"/>
        </g>
        <g id="w">
            <rect id="w-left" x="219.569" y="503.751" width="138.36" height="5.69363" rx="2.84681" transform="rotate(-113.337 219.569 503.751)" fill="white"/>
            <rect id="w-mid-to-left" x="283.437" y="506.551" width="142.566" height="5.69363" rx="2.84681" transform="rotate(-113.337 283.437 506.551)" fill="white"/>
            <rect id="w-mid-to-right" x="218.422" y="503.179" width="142.276" height="5.69363" rx="2.84681" transform="rotate(-65.9724 218.422 503.179)" fill="white"/>
            <rect id="w-right" x="281.621" y="503.34" width="142.276" height="5.69363" rx="2.84681" transform="rotate(-65.9724 281.621 503.34)" fill="white"/>
        </g>
        <g id="monitor-stand">
            <rect id="left-leg" x="220" y="346" width="66" height="5" rx="2.5" transform="rotate(-90 220 346)" fill="white"/>
            <rect id="monitor-bottom" x="191" y="343" width="126" height="6" rx="3" fill="white"/>
            <rect id="right-leg" x="283" y="346" width="66" height="6" rx="3" transform="rotate(-90 283 346)" fill="white"/>
        </g>
        <g id="left-bracket">
            <rect id="left-bracket-top" x="101.383" y="143.915" width="102.424" height="5.69363" rx="2.84681" transform="rotate(-30.0042 101.383 143.915)" fill="white"/>
            <rect id="left-bracket-bottom" x="103.296" y="141.662" width="102.424" height="5.69363" rx="2.84681" transform="rotate(28.6797 103.296 141.662)" fill="white"/>
        </g>
        <g id="right-bracket">
            <rect id="right-bracket-top" x="317.126" y="92.6963" width="102.424" height="5.69363" rx="2.84681" transform="rotate(28.6797 317.126 92.6963)" fill="white"/>
            <rect id="right-bracket-bottom" x="316.352" y="191.172" width="102.424" height="5.69363" rx="2.84681" transform="rotate(-30.0042 316.352 191.172)" fill="white"/>
        </g>
    </g>
</svg>